<svg xmlns="http://www.w3.org/2000/svg" width="12" height="16" viewBox="0 0 12 16">
  <path d="M6.5,0 C8.43299662,0 10,1.31958179 10,2.94736842 L10,5 L11.75,5 C11.8880712,5 12,5.09656603 12,5.21568627 L12,14.4901961 C11.9988978,15.3236436 11.2160414,15.9990491 10.25,16 L1.75,16 C0.783958585,15.9990491 0.00110215899,15.3236436 0,14.4901961 L0,5.21568627 C0,5.09656603 0.111928813,5 0.25,5 L3,5 L3,2.94736842 C3,1.31958179 4.56700338,0 6.5,0 Z M3,5.431 L0.5,5.43137255 L0.5,14.4901961 C0.500826529,15.0855017 1.05998671,15.5679144 1.75,15.5686275 L10.25,15.5686275 C10.9400133,15.5679144 11.4991735,15.0855017 11.5,14.4901961 L11.5,5.43137255 L10,5.431 L10,5.78947368 C10,5.90574416 9.88807119,6 9.75,6 C9.61192881,6 9.5,5.90574416 9.5,5.78947368 L9.5,5.431 L3.5,5.431 L3.5,5.78947368 C3.5,5.90574416 3.38807119,6 3.25,6 C3.11192881,6 3,5.90574416 3,5.78947368 L3,5.431 Z M3.83333333,6 C3.92538079,6 4,6.22385763 4,6.5 C4,6.77614237 3.92538079,7 3.83333333,7 L3.16666667,7 C3.07461921,7 3,6.77614237 3,6.5 C3,6.22385763 3.07461921,6 3.16666667,6 L3.83333333,6 Z M9.83333333,6 C9.92538079,6 10,6.22385763 10,6.5 C10,6.77614237 9.92538079,7 9.83333333,7 L9.16666667,7 C9.07461921,7 9,6.77614237 9,6.5 C9,6.22385763 9.07461921,6 9.16666667,6 L9.83333333,6 Z M6.5,0.421052632 C4.84314575,0.421052632 3.5,1.55212274 3.5,2.94736842 L3.5,5 L9.5,5 L9.5,2.94736842 C9.5,1.55212274 8.15685425,0.421052632 6.5,0.421052632 Z"/>
</svg>
