<svg xmlns="http://www.w3.org/2000/svg" width="22" height="9" viewBox="0 0 22 9">
    <path class="line top" d="M0.687483927,1 L21.3125161,1 C21.6920323,1 22,0.775976725 22,0.5 C22,0.223981712 21.6919752,0 21.3125161,0 L0.687483927,0 C0.308024802,0 0,0.223981712 0,0.5 C0,0.776018288 0.308024802,1 0.687483927,1 Z"/>
    <path class="line bottom" d="M21.3125161,7 L0.687483927,7 C0.307967655,7 0,7.22402328 0,7.5 C0,7.77597672 0.308024802,8 0.687483927,8 L21.3125161,8 C21.6920323,8 22,7.77597672 22,7.5 C22,7.22402328 21.6920323,7 21.3125161,7 Z"/>
</svg>
