<svg xmlns="http://www.w3.org/2000/svg" width="14" height="14" viewBox="0 0 14 14">
  <path d="M13.9146849,13.5018252 L9.65522757,9.24233351 C10.5395429,8.26001121 11.0832133,6.96501374 11.0832133,5.54166496 C11.0832133,2.48617093 8.59706238,0 5.54159297,0 C2.48612355,0 0,2.48617093 0,5.54166496 C0,8.59715899 2.4861509,11.0833299 5.54162031,11.0833299 C6.96493028,11.0833299 8.25991732,10.5396552 9.24225905,9.65475849 L13.5017164,13.9142502 C13.5588916,13.9714258 13.6335393,14 13.7082143,14 C13.7828894,14 13.8575371,13.9714258 13.9147123,13.9148244 C14.0284338,13.8005004 14.0284338,13.6161492 13.9146849,13.5018252 Z M5.54162031,10.5000068 C2.80757346,10.5000068 0.583345723,8.27576118 0.583345723,5.5416923 C0.583345723,2.80762342 2.80754612,0.583350423 5.54162031,0.583350423 C8.27569451,0.583350423 10.4998949,2.80759608 10.4998949,5.54166496 C10.4998949,8.27573384 8.27566716,10.5000068 5.54162031,10.5000068 Z"/>
</svg>
