<svg xmlns="http://www.w3.org/2000/svg" width="14" height="16" viewBox="0 0 14 16">
  <path d="M0.151994792,14.3674758 C0.285651042,14.4341407 3.46627604,16 7,16 C10.8284167,16 13.7364792,14.4289075 13.8583958,14.3620426 C13.9462476,14.3138504 14,14.22705 14,14.1333819 C14,11.9803379 13.2778698,10.0101558 11.9666823,8.58545955 C11.0494635,7.58881881 9.89861979,6.90950315 8.62932292,6.59677795 C10.2296474,5.90049752 11.0889191,4.28355737 10.6985432,2.70300929 C10.3081673,1.1224612 8.77229714,0 7,0 C5.22770286,0 3.69183274,1.1224612 3.30145683,2.70300929 C2.91108092,4.28355737 3.77035264,5.90049752 5.37067708,6.59677795 C4.10138021,6.90950315 2.95053646,7.58891881 2.03331771,8.58545955 C0.722130208,10.0101558 0,11.9803379 0,14.1333819 C0,14.2309612 0.0582981875,14.3207475 0.151994792,14.3674758 Z M3.79166667,3.4669927 C3.79166667,1.84699958 5.22808643,0.533735677 7,0.533735677 C8.77191357,0.533735677 10.2083333,1.84699958 10.2083333,3.4669927 C10.2083333,5.08698583 8.77191357,6.40024973 7,6.40024973 C5.22891932,6.39841282 3.79367584,5.08622434 3.79166667,3.4669927 Z M2.47964063,8.92881728 C3.6640625,7.64215076 5.26925,6.93356919 7,6.93356919 C8.73075,6.93356919 10.3359375,7.64215076 11.5203594,8.92881728 C12.7118542,10.2233836 13.381776,12.0114038 13.4153542,13.9778193 C12.791224,14.2867112 10.1976875,15.4666805 7,15.4666805 C4.04286458,15.4666805 1.2578125,14.2797448 0.584791667,13.9715194 C0.619791667,12.0075372 1.28942187,10.222017 2.47964063,8.92881728 Z"/>
</svg>
